<svg width="17" height="14" viewBox="0 0 17 14" fill="none" xmlns="http://www.w3.org/2000/svg">
<path fill-rule="evenodd" clip-rule="evenodd" d="M6.75694 1.09882C7.52154 -0.26048 9.47863 -0.260481 10.2432 1.09882L15.8235 11.0194C16.5735 12.3526 15.61 13.9999 14.0804 13.9999H2.91978C1.39013 13.9999 0.426701 12.3526 1.17663 11.0194L6.75694 1.09882ZM9.5 11C9.5 11.5523 9.05229 12 8.5 12C7.94772 12 7.5 11.5523 7.5 11C7.5 10.4477 7.94772 10 8.5 10C9.05229 10 9.5 10.4477 9.5 11ZM8.5 3C7.94772 3 7.5 3.44772 7.5 4V7C7.5 7.55228 7.94772 8 8.5 8C9.05228 8 9.5 7.55228 9.5 7V4C9.5 3.44772 9.05228 3 8.5 3Z" fill="#FEFEFF"/>
</svg>
