<svg width="5" height="16" viewBox="0 0 5 16" fill="none" xmlns="http://www.w3.org/2000/svg">
<path d="M2.5 4C1.39543 4 0.500004 3.10457 0.500004 2C0.500004 0.89543 1.39543 -4.82823e-08 2.5 0C3.60457 4.82823e-08 4.5 0.895431 4.5 2C4.5 3.10457 3.60457 4 2.5 4Z" fill="#111827"/>
<path d="M2.5 10C1.39543 10 0.500004 9.10457 0.500004 8C0.500004 6.89543 1.39543 6 2.5 6C3.60457 6 4.5 6.89543 4.5 8C4.5 9.10457 3.60457 10 2.5 10Z" fill="#111827"/>
<path d="M2.5 16C1.39543 16 0.500004 15.1046 0.500004 14C0.500004 12.8954 1.39543 12 2.5 12C3.60457 12 4.5 12.8954 4.5 14C4.5 15.1046 3.60457 16 2.5 16Z" fill="#111827"/>
</svg>
