<svg width="13" height="16" viewBox="0 0 13 16" fill="none" xmlns="http://www.w3.org/2000/svg">
<path d="M5.25 0C4.69772 0 4.25 0.447715 4.25 1C4.25 1.55228 4.69772 2 5.25 2H7.25C7.80228 2 8.25 1.55228 8.25 1C8.25 0.447715 7.80228 0 7.25 0H5.25Z" fill="#FEFEFF"/>
<path fill-rule="evenodd" clip-rule="evenodd" d="M0.25 3C0.25 1.89543 1.14543 1 2.25 1C2.25 2.65685 3.59315 4 5.25 4H7.25C8.90685 4 10.25 2.65685 10.25 1C11.3546 1 12.25 1.89543 12.25 3V14C12.25 15.1046 11.3546 16 10.25 16H2.25C1.14543 16 0.25 15.1046 0.25 14V3ZM3.25 7C2.69772 7 2.25 7.44772 2.25 8C2.25 8.55229 2.69772 9 3.25 9H3.26C3.81228 9 4.26 8.55229 4.26 8C4.26 7.44772 3.81228 7 3.26 7H3.25ZM6.25 7C5.69772 7 5.25 7.44772 5.25 8C5.25 8.55229 5.69772 9 6.25 9H9.25C9.80228 9 10.25 8.55229 10.25 8C10.25 7.44772 9.80228 7 9.25 7H6.25ZM3.25 11C2.69772 11 2.25 11.4477 2.25 12C2.25 12.5523 2.69772 13 3.25 13H3.26C3.81228 13 4.26 12.5523 4.26 12C4.26 11.4477 3.81228 11 3.26 11H3.25ZM6.25 11C5.69772 11 5.25 11.4477 5.25 12C5.25 12.5523 5.69772 13 6.25 13H9.25C9.80228 13 10.25 12.5523 10.25 12C10.25 11.4477 9.80228 11 9.25 11H6.25Z" fill="#FEFEFF"/>
</svg>
