<svg width="19" height="14" viewBox="0 0 19 14" fill="none" xmlns="http://www.w3.org/2000/svg">
<path d="M8.75 3C8.75 4.65685 7.40685 6 5.75 6C4.09315 6 2.75 4.65685 2.75 3C2.75 1.34315 4.09315 0 5.75 0C7.40685 0 8.75 1.34315 8.75 3Z" fill="#FEFEFF"/>
<path d="M16.75 3C16.75 4.65685 15.4069 6 13.75 6C12.0931 6 10.75 4.65685 10.75 3C10.75 1.34315 12.0931 0 13.75 0C15.4069 0 16.75 1.34315 16.75 3Z" fill="#FEFEFF"/>
<path d="M12.6791 14C12.7258 13.6734 12.75 13.3395 12.75 13C12.75 11.3648 12.1893 9.86059 11.2498 8.66907C11.9852 8.24355 12.8392 8 13.75 8C16.5114 8 18.75 10.2386 18.75 13V14H12.6791Z" fill="#FEFEFF"/>
<path d="M5.75 8C8.51142 8 10.75 10.2386 10.75 13V14H0.75V13C0.75 10.2386 2.98858 8 5.75 8Z" fill="#FEFEFF"/>
</svg>
